<?xml version="1.0" standalone="no"?><!-- Generator: Gravit.io --><svg xmlns="http://www.w3.org/2000/svg" xmlns:xlink="http://www.w3.org/1999/xlink" style="isolation:isolate" viewBox="294 16.201 673 829.397" width="673" height="829.397"><defs><clipPath id="_clipPath_gEQOhq5Dma4B7FQWv9C0eoysXY1eQ4EU"><rect x="294" y="16.201" width="673" height="829.397"/></clipPath></defs><g clip-path="url(#_clipPath_gEQOhq5Dma4B7FQWv9C0eoysXY1eQ4EU)"><path d=" M 450 151.395 L 450 678 L 359 666 L 359 159.196 L 450 151.395 L 450 151.395 Z  M 450 151.395 L 450 146 L 359 159.196 L 359 159.196 L 450 151.395 L 450 151.395 Z " fill-rule="evenodd" fill="rgb(255,81,81)"/><path d=" M 486 159.196 L 586 121 L 576 663 L 490 649 L 486 159.196 Z " fill="rgb(142,140,229)"/><path d=" M 614 146 L 718 157 L 718 705 L 617 705 L 614 146 Z " fill="rgb(181,116,164)"/><path d=" M 747 121 L 867 137 L 867 711 L 747 723 L 747 121 Z " fill="rgb(242,161,161)"/><defs><filter id="UrZ9BJB1Z7k9DAnY4YDdJaqPrOgklNSw" x="-200%" y="-200%" width="400%" height="400%" filterUnits="objectBoundingBox" color-interpolation-filters="sRGB"><feGaussianBlur xmlns="http://www.w3.org/2000/svg" stdDeviation="13.73954900108489"/></filter></defs><g filter="url(#UrZ9BJB1Z7k9DAnY4YDdJaqPrOgklNSw)"><path d=" M 326 61.603 L 611 61.603 L 614 165.596 L 326 197.201 L 326 61.603 Z " fill="rgb(255,255,255)"/></g><defs><filter id="u40iEuCv7QAlVH3QclPNhDIyBezKCgf2" x="-200%" y="-200%" width="400%" height="400%" filterUnits="objectBoundingBox" color-interpolation-filters="sRGB"><feGaussianBlur xmlns="http://www.w3.org/2000/svg" stdDeviation="13.73954900108489"/></filter></defs><g filter="url(#u40iEuCv7QAlVH3QclPNhDIyBezKCgf2)"><path d=" M 747 69.201 L 569.865 69.201 L 568 173.194 L 747 204.799 L 747 69.201 Z " fill="rgb(255,255,255)"/></g><defs><filter id="8ZgkWreJlwjgb2WADC1zOhTFBqTvj6Li" x="-200%" y="-200%" width="400%" height="400%" filterUnits="objectBoundingBox" color-interpolation-filters="sRGB"><feGaussianBlur xmlns="http://www.w3.org/2000/svg" stdDeviation="13.73954900108489"/></filter></defs><g filter="url(#8ZgkWreJlwjgb2WADC1zOhTFBqTvj6Li)"><path d=" M 927 48.201 L 732.052 48.201 L 730 152.194 L 927 183.799 L 927 48.201 Z " fill="rgb(255,255,255)"/></g><defs><filter id="p4rAKMxL3A96J3eZ2D43DZrq5QqLWwCd" x="-200%" y="-200%" width="400%" height="400%" filterUnits="objectBoundingBox" color-interpolation-filters="sRGB"><feGaussianBlur xmlns="http://www.w3.org/2000/svg" stdDeviation="13.73954900108489"/></filter></defs><g filter="url(#p4rAKMxL3A96J3eZ2D43DZrq5QqLWwCd)"><path d=" M 335 649 L 468.594 649 L 470 752.993 L 335 784.598 L 335 649 Z " fill="rgb(255,255,255)"/></g><defs><filter id="EI6Cn7xpxRSZgg0yj6gBCOXqaJpI1mjC" x="-200%" y="-200%" width="400%" height="400%" filterUnits="objectBoundingBox" color-interpolation-filters="sRGB"><feGaussianBlur xmlns="http://www.w3.org/2000/svg" stdDeviation="13.73954900108489"/></filter></defs><g filter="url(#EI6Cn7xpxRSZgg0yj6gBCOXqaJpI1mjC)"><path d=" M 767 678 L 551.271 678 L 549 781.993 L 767 813.598 L 767 678 Z " fill="rgb(255,255,255)"/></g><defs><filter id="UdScYzoWuJSZprACRP6AEUQZ1UxmZrUu" x="-200%" y="-200%" width="400%" height="400%" filterUnits="objectBoundingBox" color-interpolation-filters="sRGB"><feGaussianBlur xmlns="http://www.w3.org/2000/svg" stdDeviation="13.73954900108489"/></filter></defs><g filter="url(#UdScYzoWuJSZprACRP6AEUQZ1UxmZrUu)"><path d=" M 598 627.402 L 466.385 627.402 L 465 731.395 L 598 763 L 598 627.402 Z " fill="rgb(255,255,255)"/></g><defs><filter id="spMMjvF3K1ybkDt3CLzDHC1irEUXnqva" x="-200%" y="-200%" width="400%" height="400%" filterUnits="objectBoundingBox" color-interpolation-filters="sRGB"><feGaussianBlur xmlns="http://www.w3.org/2000/svg" stdDeviation="13.73954900108489"/></filter></defs><g filter="url(#spMMjvF3K1ybkDt3CLzDHC1irEUXnqva)"><path d=" M 935 675 L 740.052 675 L 738 778.993 L 935 810.598 L 935 675 Z " fill="rgb(255,255,255)"/></g></g></svg>