<?xml version="1.0" encoding="utf-8"?>
<!-- Generator: Adobe Illustrator 15.1.0, SVG Export Plug-In . SVG Version: 6.00 Build 0)  -->
<!DOCTYPE svg PUBLIC "-//W3C//DTD SVG 1.1//EN" "http://www.w3.org/Graphics/SVG/1.1/DTD/svg11.dtd">
<svg version="1.1" id="Layer_1" xmlns="http://www.w3.org/2000/svg" xmlns:xlink="http://www.w3.org/1999/xlink" x="0px" y="0px"
	 width="200px" height="143px" viewBox="0 0 504 360" enable-background="new 0 0 504 360" xml:space="preserve">
<g>
	<circle fill="#224D51" stroke="#4E7F87" stroke-width="2" stroke-miterlimit="10" cx="112.146" cy="150.54" r="75.699"/>
	<g>
		<path fill="#224D51" stroke="#234D51" stroke-width="2" stroke-miterlimit="10" d="M45.076,116.042l1.986,3.705l4.513,3.158
			l1.354,2.486c0,0,3.837-0.68,4.514,2.707c0.678,3.384,4.516,1.127,6.546,5.415c2.032,4.29,2.482,6.546,2.482,6.546
			s-0.451,5.869-5.19,6.319c-4.739,0.451-4.739,10.38-3.838,6.771c0.904-3.612-0.901,3.609-0.901,3.609l1.805,8.577l3.159,2.482
			l1.13,3.612h2.256l1.58-0.901l1.128,5.19l1.128,1.126v6.999v3.609v2.933l1.354,10.157c0,0,2.709,5.416,4.289,5.19
			c1.581-0.226,11.51,6.996,11.51,6.996h3.159l-3.159-3.835l0.225-2.031l-2.481-2.257l1.352-3.612l1.355-2.032l2.708-3.833
			l2.031-3.162l1.129-2.031l1.578-1.578v-3.611l6.095-5.19l2.258-5.193l2.708-3.383v-4.74c0,0-3.611-2.485-5.191-3.161
			s-4.062-1.578-4.514-0.902c-0.45,0.676-1.128-3.158-1.128-3.158l-0.452-2.71l-4.289-3.837l-0.676-2.736l-5.19-5.388l-2.482-3.387
			l-2.483-0.222l-1.354,1.463l-2.122,1.016c0,0-4.424-1.353-5.552-6.768c-1.128-5.419-0.451-2.032-2.031-3.838
			c-1.58-1.806,1.805-2.936,1.805-2.936s2.483-3.384-1.127-4.511c-3.611-1.129-6.32-1.806-6.32-1.806s-0.451-6.095,1.806-9.252
			c2.257-3.162,9.027-3.387,9.027-3.387s3.837,2.257,4.288,3.387c0.452,1.126,3.611,4.739,3.611,4.739l-0.226-9.481l1.806-1.353
			c0,0,2.257-3.387,4.514-2.482c2.257,0.901,4.74-4.739,7.673-2.032c2.934,2.708-3.611-1.935,10.607-0.741
			c14.219,1.192,0-2.871,0-2.871l0.452-4.06l-2.708-4.288c0,0-1.355-0.454-2.709,0c-1.354,0.451,1.128,2.708-3.16,1.352
			c-4.288-1.352-2.708,1.13-1.58,2.031c1.127,0.905-13.858,0.01-0.902-7.221c1.085-0.605-0.728,0.417,2.256,0.602
			c0,0,0.623,0.587,1.053,0.677c0.934,0.194,1.062-1.278,1.205-1.278c0.226,0,4.74-0.402,4.965-2.909
			c0.225-2.509,2.482,4.714,3.837-2.056c1.354-6.771-7.394-6.891-7.394-6.891S60.468,82.547,45.076,116.042z"/>
		<path fill="#224D51" stroke="#234D51" stroke-width="2" stroke-miterlimit="10" d="M107.208,74.841c0,0-1.129,2.59,2.595,5.638
			v6.205l2.031,1.016l-0.676,2.256l2.934,4.739c0,0,2.032,3.159,2.822-0.565c0.79-3.723,1.918-6.32,1.918-6.32l1.917-1.127
			c0,0,2.935,0.565,3.499-0.451c0.565-1.016,2.287,0.982,2.483-4.513c0.199-5.499,1.016-1.356,1.016-1.356l0.739-3.825
			C128.484,76.539,111.255,74.272,107.208,74.841z"/>
		<path fill="#224D51" stroke="#234D51" stroke-width="2" stroke-miterlimit="10" d="M125.714,90.182v-2.143
			c0,0,2.257-0.904,3.949,0c1.692,0.902,3.723,1.177,4.063,0.87c0.336-0.308,2.593,3.19,0,3.641
			c-2.597,0.454-6.66,0.565-7.337-0.901C125.714,90.182,125.714,90.182,125.714,90.182z"/>
		<path fill="#224D51" stroke="#234D51" stroke-width="2" stroke-miterlimit="10" d="M78.116,124.035l-1.038,1.015
			c0,0-0.677,1.692-1.693,0c-1.016-1.692-1.129-2.708-1.129-2.708l1.931-2.482c0,0,1.456-0.904,2.471,0
			c1.015,0.901,2.82,1.127,3.498,1.806c0.678,0.676,5.191,1.803,4.514,3.384c-0.677,1.581-4.626-0.564-4.626-0.564
			S78.478,125.276,78.116,124.035z"/>
		<path fill="#224D51" stroke="#234D51" stroke-width="2" stroke-miterlimit="10" d="M79.673,128.774c0,0,1.129,2.031,5.642-0.79
			c0,0,3.5,1.126,2.596,3.498c-0.902,2.372-4.252,0.905-4.043,1.13c0.207,0.226-2.207-2.032-3.369-1.355
			C79.336,131.933,76.853,130.805,79.673,128.774z"/>
		<path fill="#224D51" stroke="#234D51" stroke-width="2" stroke-miterlimit="10" d="M156.07,87.638l-2.709,0.963h-2.858
			l-3.763,1.643h-3.61c0,0-8.878,2.568,1.505,3.473l0.902,3.011c0,0,0.077,2.105,2.295,2.105c2.218,0,0.413,4.062,3.123,4.211
			c2.708,0.151-0.904,4.063-1.805,1.957c0,0-2.558,0.151-4.362,1.356c-1.807,1.201-2.804-0.905-9.828,1.201
			c0,0-3.716,5.115,0.799,5.569c0,0,3.159,2.557,2.256,7.071l4.364,1.204c0,0,1.503-0.426,1.503-1.941
			c0-1.52,0.914-3.326,0.914-3.326l3.602-1.201c0,0,1.505-3.01,4.964,0c3.46,3.007,8.577,3.609,8.577,3.609l2.857,0.918l3.763,3.17
			c0,0,2.556,6.443-2.559,4.489c-5.116-1.954-2.708-1.315-2.708-1.315l-3.159,0.714l-2.407-2.409l-4.364-0.75
			c0,0-3.914-1.455-5.117-0.729c-1.202,0.729-5.265,3.174-5.265,3.174l-2.858,2.18l-1.958,2.436c0,0-2.047,0.349-3.205,2.436
			c-1.158,2.087,0.706,7.654,0,8.407c-0.707,0.75-1.25,3.042,0,3.026c1.25-0.015,7.118,4.285,2.454,5.446
			c-4.665,1.158,1.053,5.521,1.653,5.369c0.604-0.148,5.118,6.168,4.815,7.823c-0.299,1.655,4.666,2.408,4.666,2.408l4.814-1.053
			l4.212-0.753l3.159-2.405c0,0,4.816,2.856,3.913,4.211s6.621,4.214,0.601,6.168c0,0-1.353,1.652-0.902,5.416
			c0.452,3.763-3.007,4.21-3.007,4.21l-2.408,3.612l-0.451,3.161l2.408,2.106l-0.753,3.158l0.151,4.062c0,0-1.656,0.902-1.505,1.807
			c0.15,0.901,0.452,3.461,0.452,3.461s-0.33,5.795,0.964,6.808C161.486,210.321,226.257,149.734,156.07,87.638z"/>
	</g>
	<g>
		<path fill="#224D51" stroke="#234D51" stroke-width="2" stroke-miterlimit="10" d="M81.125,233.096c0,0,4.895-1.52,8.527,6.44
			c3.632,7.955,2.104,9.021,2.104,9.021c0.967,1.72,11.858,15.304,16.729,30.833c4.87,15.529-34.886-4.724-34.886-4.724
			s-6.188-13.905-3.815-17.857c2.373-3.949-8.478-8.876-8.478-8.876s-12.189-5.063-15.749-8.546
			c-3.56-3.485-7.858-6.372-10.464-7.32c-2.607-0.947-6.274-7.285-4.341-11.55c1.936-4.261-10.329-16.368-2.032-41.346
			c0,0,5.312-8.104,7.223,4.681c1.91,12.781-0.485,13.254,2.019,19.92c2.506,6.668,3.446-11.365,13.958,14.902
			C51.921,218.675,69.893,235.708,81.125,233.096c0,0,7.09,16.302-4.075,15.675"/>
		<path fill="#224D51" stroke="#234D51" stroke-width="2" stroke-miterlimit="10" d="M37.962,203.772c0,0,1.345,8.709,1.38,9.66
			c0.037,0.95-0.874,9.65,5.081,13.521c5.955,3.873,3.388,11.585,7.263,13.345"/>
		<path fill="#224D51" stroke="#234D51" stroke-width="2" stroke-miterlimit="10" d="M33.627,177.286c0,0-2.204-12.31-5.865-8.36
			c0,0-1.879,2.374-1.39,9.75c0,0-2.402,6.678-0.442,14.031"/>
	</g>
	<g>
		<path fill="#224D51" stroke="#234D51" stroke-width="2" stroke-miterlimit="10" d="M150.9,231.29c0,0-4.961-1.281-8.208,6.842
			c-3.245,8.122-1.667,9.11-1.667,9.11c-0.882,1.766-11.109,15.862-15.226,31.605c-4.117,15.745,34.617-6.397,34.617-6.397
			s5.513-14.187,2.953-18.018c-2.561-3.834,8.041-9.274,8.041-9.274s11.932-5.644,15.32-9.297c3.387-3.651,7.541-6.742,10.101-7.813
			c2.558-1.075,5.915-7.579,3.777-11.745c-2.137-4.165,9.53-16.847,0.042-41.398c0,0-5.698-7.838-6.99,5.023
			c-1.292,12.862,1.123,13.217-1.059,19.997c-2.182,6.779-3.987-11.188-13.224,15.555C179.379,215.479,162.248,233.358,150.9,231.29
			c0,0-6.296,16.625,4.824,15.462"/>
		<path fill="#224D51" stroke="#234D51" stroke-width="2" stroke-miterlimit="10" d="M192.603,199.925c0,0-0.923,8.766-0.914,9.713
			c0.011,0.955,1.337,9.599-4.425,13.752c-5.76,4.151-2.826,11.734-6.613,13.677"/>
		<path fill="#224D51" stroke="#234D51" stroke-width="2" stroke-miterlimit="10" d="M195.659,173.26c0,0,1.609-12.402,5.455-8.636
			c0,0,1.991,2.282,1.859,9.673c0,0,2.72,6.555,1.116,13.992"/>
	</g>

		<text transform="matrix(1 0 0 1 265.8262 240.2979)" fill="#224D51" stroke="#234D51" stroke-width="2" stroke-miterlimit="10" font-family="'AbadiMT-CondensedLight'" font-size="113.8125">SOON</text>

		<text transform="matrix(1 0 0 1 212.1875 167.5308)" fill="#224D51" stroke="#234D51" stroke-width="2" stroke-miterlimit="10" font-family="'AbadiMT-CondensedLight'" font-size="113.8125">HAP</text>
</g>
</svg>
